<svg width="25" height="25" viewBox="0 0 25 25" fill="none" xmlns="http://www.w3.org/2000/svg">
<path fill-rule="evenodd" clip-rule="evenodd" d="M7.29163 3.125H19.7916C20.3666 3.125 20.8333 3.59167 20.8333 4.16667V17.7083V19.7917V20.8333C20.8333 21.4083 20.3666 21.875 19.7916 21.875H18.75H7.29163C5.56871 21.875 4.16663 20.4729 4.16663 18.75V6.25C4.16663 4.52708 5.56871 3.125 7.29163 3.125ZM7.29163 5.20833H18.75V15.625H7.29163C6.92392 15.625 6.57704 15.7 6.24996 15.8167V6.25C6.24996 5.67604 6.71767 5.20833 7.29163 5.20833ZM7.29163 19.7917C6.71767 19.7917 6.24996 19.324 6.24996 18.75C6.24996 18.176 6.71767 17.7083 7.29163 17.7083H18.75V19.7917H7.29163Z" fill="#927FF2"/>
<mask id="mask0_716_22" style="mask-type:luminance" maskUnits="userSpaceOnUse" x="4" y="3" width="17" height="19">
<path fill-rule="evenodd" clip-rule="evenodd" d="M7.29163 3.125H19.7916C20.3666 3.125 20.8333 3.59167 20.8333 4.16667V17.7083V19.7917V20.8333C20.8333 21.4083 20.3666 21.875 19.7916 21.875H18.75H7.29163C5.56871 21.875 4.16663 20.4729 4.16663 18.75V6.25C4.16663 4.52708 5.56871 3.125 7.29163 3.125ZM7.29163 5.20833H18.75V15.625H7.29163C6.92392 15.625 6.57704 15.7 6.24996 15.8167V6.25C6.24996 5.67604 6.71767 5.20833 7.29163 5.20833ZM7.29163 19.7917C6.71767 19.7917 6.24996 19.324 6.24996 18.75C6.24996 18.176 6.71767 17.7083 7.29163 17.7083H18.75V19.7917H7.29163Z" fill="white"/>
</mask>
<g mask="url(#mask0_716_22)">
</g>
</svg>
