<svg width="294" height="85" viewBox="0 0 294 85" fill="none" xmlns="http://www.w3.org/2000/svg">
<g filter="url(#filter0_d_85_850)">
<path d="M60.5403 13.2579L60.4113 56.8126L46.3577 60.2171L34.5987 36.3961L34.9283 62.9859L20.8748 66.3904L0.944055 27.6952L13.3065 24.7004L24.8972 51.649L24.5609 21.9739L37.0983 18.9367L50.1486 45.2848L48.1778 16.2527L60.5403 13.2579Z" fill="#93D75C"/>
</g>
<path d="M89.7888 62.5965C85.8288 62.5965 82.1888 61.6765 78.8688 59.8365C75.5488 57.9565 72.9088 55.3765 70.9488 52.0965C69.0288 48.7765 68.0688 45.0365 68.0688 40.8765C68.0688 36.7165 69.0288 32.9965 70.9488 29.7165C72.9088 26.3965 75.5488 23.8165 78.8688 21.9765C82.1888 20.1365 85.8288 19.2165 89.7888 19.2165C93.7888 19.2165 97.4288 20.1365 100.709 21.9765C104.029 23.8165 106.649 26.3965 108.569 29.7165C110.489 32.9965 111.449 36.7165 111.449 40.8765C111.449 45.0365 110.489 48.7765 108.569 52.0965C106.649 55.3765 104.029 57.9565 100.709 59.8365C97.3888 61.6765 93.7488 62.5965 89.7888 62.5965ZM89.7888 51.6765C92.7888 51.6765 95.1488 50.6965 96.8688 48.7365C98.6288 46.7765 99.5088 44.1565 99.5088 40.8765C99.5088 37.5165 98.6288 34.8765 96.8688 32.9565C95.1488 30.9965 92.7888 30.0165 89.7888 30.0165C86.7488 30.0165 84.3688 30.9965 82.6488 32.9565C80.9288 34.8765 80.0688 37.5165 80.0688 40.8765C80.0688 44.1965 80.9288 46.8365 82.6488 48.7965C84.3688 50.7165 86.7488 51.6765 89.7888 51.6765Z" fill="#93D75C"/>
<path d="M134.191 62.7311L128.859 45.8349L127.621 45.5992L124.702 60.9236L113.15 58.7232L121.065 17.1703L139.277 20.6393C142.617 21.2755 145.334 22.4038 147.428 24.0242C149.529 25.6053 150.974 27.5297 151.764 29.7975C152.561 32.026 152.72 34.3977 152.241 36.9125C151.702 39.7416 150.441 42.0871 148.458 43.9488C146.521 45.7788 143.974 46.8612 140.815 47.1962L147.099 65.1898L134.191 62.7311ZM129.125 37.7012L134.843 38.7902C136.414 39.0895 137.664 38.9408 138.592 38.3439C139.52 37.747 140.119 36.7413 140.389 35.3267C140.643 33.9907 140.429 32.8709 139.746 31.9671C139.11 31.0315 138.025 30.4178 136.493 30.1259L130.776 29.0369L129.125 37.7012Z" fill="#927FF2"/>
<path d="M177.399 19.7959C181.806 20.3344 185.548 21.6982 188.626 23.8876C191.747 26.042 194.008 28.8166 195.406 32.2113C196.805 35.6059 197.254 39.3481 196.755 43.4377C196.26 47.4875 194.905 50.9891 192.691 53.9424C190.516 56.9005 187.65 59.089 184.091 60.508C180.578 61.8921 176.637 62.3173 172.269 61.7838L155.653 59.7537L160.783 17.7659L177.399 19.7959ZM172.635 51.3712C176.049 51.7884 178.843 51.1827 181.017 49.5543C183.19 47.9259 184.486 45.4043 184.903 41.9897C185.325 38.5354 184.677 35.7563 182.96 33.6525C181.247 31.509 178.683 30.2287 175.269 29.8115L171.219 29.3167L168.585 50.8764L172.635 51.3712Z" fill="#93D75C"/>
<path d="M218.221 52.9282L231.162 50.6497L232.722 59.5133L208.2 63.8312L200.865 22.172L212.446 20.1327L218.221 52.9282Z" fill="#93D75C"/>
<path d="M255.067 30.4483L252.999 37.0312L265.879 41.0766L263.2 49.6058L250.32 45.5603L248.037 52.8302L262.634 57.415L259.811 66.4021L233.995 58.2933L246.67 17.9371L272.487 26.046L269.664 35.0331L255.067 30.4483Z" fill="#93D75C"/>
<defs>
<filter id="filter0_d_85_850" x="0.944092" y="13.2578" width="77.5554" height="63.5482" filterUnits="userSpaceOnUse" color-interpolation-filters="sRGB">
<feFlood flood-opacity="0" result="BackgroundImageFix"/>
<feColorMatrix in="SourceAlpha" type="matrix" values="0 0 0 0 0 0 0 0 0 0 0 0 0 0 0 0 0 0 127 0" result="hardAlpha"/>
<feOffset dx="4" dy="4"/>
<feGaussianBlur stdDeviation="2"/>
<feComposite in2="hardAlpha" operator="out"/>
<feColorMatrix type="matrix" values="0 0 0 0 0 0 0 0 0 0 0 0 0 0 0 0 0 0 0.05 0"/>
<feBlend mode="normal" in2="BackgroundImageFix" result="effect1_dropShadow_85_850"/>
<feBlend mode="normal" in="SourceGraphic" in2="effect1_dropShadow_85_850" result="shape"/>
</filter>
</defs>
</svg>
